<?xml version="1.0" encoding="utf-8"?>
<!-- Generator: Adobe Illustrator 21.0.0, SVG Export Plug-In . SVG Version: 6.00 Build 0)  -->
<svg version="1.1" id="Calque_1" xmlns="http://www.w3.org/2000/svg" xmlns:xlink="http://www.w3.org/1999/xlink" x="0px" y="0px"
	 viewBox="0 0 500 500" style="enable-background:new 0 0 500 500;" xml:space="preserve">
<style type="text/css">
	.st0{fill:#20D6C7;}
	.st1{fill:#F3EDD3;}
</style>
<rect class="st0" width="500" height="500"/>
<g>
	<path class="st1" d="M177.5,272.4h-10.6v-44.8h10.6V272.4z"/>
	<path class="st1" d="M219.8,272.4v-32.2c0-0.5,0-1-0.1-1.5c-0.1-0.5-0.2-0.9-0.5-1.3c-0.3-0.4-0.6-0.7-1.1-0.9
		c-0.5-0.2-1.2-0.3-2-0.3c-0.7,0-1.5,0.1-2.4,0.3c-0.9,0.2-1.6,0.4-2.1,0.6c0.1,0.8,0.2,1.6,0.2,2.3v33h-9.1v-32.2
		c0-0.5,0-1-0.1-1.5c-0.1-0.5-0.2-0.9-0.5-1.3c-0.3-0.4-0.6-0.7-1.1-0.9c-0.5-0.2-1.2-0.3-2-0.3c-0.7,0-1.4,0.1-2.3,0.3
		c-0.9,0.2-1.5,0.4-2,0.6v35.2h-10.6v-41.3c0.7-0.4,1.7-0.9,2.8-1.4c1.2-0.5,2.5-0.9,4-1.4c1.5-0.4,3-0.8,4.5-1
		c1.6-0.3,3.1-0.4,4.6-0.4c1.5,0,2.8,0.2,3.9,0.5c1.1,0.3,2.1,0.8,2.9,1.3c1.6-0.5,3.3-0.9,5.1-1.3c1.8-0.3,3.5-0.5,5.2-0.5
		c2.4,0,4.5,0.2,6.2,0.7c1.7,0.5,3.1,1.2,4.1,2.2c1,1,1.8,2.3,2.2,3.9c0.5,1.6,0.7,3.5,0.7,5.7v32.9H219.8z"/>
	<path class="st1" d="M256.1,272.4v-12.2h-9.1v12.2h-10.6v-32.6c0-1.9,0.3-3.7,1-5.3c0.7-1.6,1.6-2.9,2.9-4.1s2.9-2,4.7-2.6
		c1.9-0.6,4-0.9,6.5-0.9c2.6,0,4.8,0.3,6.7,0.9c1.9,0.6,3.5,1.5,4.7,2.7c1.3,1.2,2.2,2.5,2.8,4.1c0.6,1.6,0.9,3.3,0.9,5.2v32.6
		H256.1z M256.1,251.9v-12.1c0-0.6,0-1.1-0.1-1.7c-0.1-0.6-0.3-1.1-0.6-1.6c-0.3-0.5-0.8-0.9-1.4-1.2c-0.6-0.3-1.4-0.5-2.4-0.5
		c-1.1,0-1.9,0.2-2.5,0.5c-0.6,0.3-1.1,0.7-1.4,1.2c-0.3,0.5-0.5,1-0.6,1.6c-0.1,0.6-0.1,1.2-0.1,1.7v12.1H256.1z"/>
	<path class="st1" d="M301.9,260.9c0,1.7-0.3,3.3-0.9,4.7c-0.6,1.5-1.4,2.8-2.6,3.9c-1.2,1.1-2.7,2-4.5,2.6
		c-1.8,0.6-3.9,0.9-6.4,0.9c-2.6,0-4.7-0.3-6.6-0.9c-1.8-0.6-3.4-1.5-4.6-2.6c-1.2-1.1-2.1-2.4-2.7-3.9c-0.6-1.5-0.9-3.1-0.9-4.7
		v-23.7c0-3.5,0.9-5.9,2.7-7.4c1.8-1.5,4.4-2.2,7.9-2.2h7.9h9.7l-3.6,8.3h-11.3c-0.7,0-1.2,0-1.6,0.1c-0.4,0.1-0.6,0.2-0.8,0.5
		c-0.2,0.2-0.3,0.6-0.3,1.1c0,0.5,0,1.1,0,1.9v21.6c0,1.1,0.3,2.1,1,2.9c0.7,0.8,1.7,1.2,3.1,1.2c1.4,0,2.4-0.4,2.9-1.2
		c0.6-0.8,0.9-1.8,0.9-2.9v-4.2h-4.2l3.6-8.3h11.2v8.3V260.9z"/>
	<path class="st1" d="M328.1,272.4c-0.8,0-1.7,0-2.7,0h-8c-2.4,0-4.4-0.3-5.8-1c-1.4-0.6-2.4-1.5-3.1-2.4c-0.7-1-1.1-2-1.3-3.2
		s-0.3-2.2-0.3-3.1v-25.5c0-3.5,0.9-5.9,2.7-7.4c1.8-1.5,4.4-2.2,7.9-2.2h15.4l-3.6,8.3h-9.1c-0.7,0-1.2,0-1.6,0.1
		c-0.4,0.1-0.6,0.2-0.8,0.5c-0.2,0.2-0.3,0.6-0.3,1.1c0,0.5,0,1.1,0,1.9v6h14.2l-3.6,8.3h-10.6v7c0,1.3,0.1,2.2,0.2,2.6
		c0.1,0.5,0.5,0.7,1.3,0.8h14.2l-3.6,8.3C329.3,272.4,328.8,272.4,328.1,272.4z"/>
</g>
</svg>
